<svg width="271" height="271" viewBox="0 0 271 271" fill="none" xmlns="http://www.w3.org/2000/svg">
<path d="M135.224 0C121.226 0 109.877 11.361 109.877 25.359V109.874H25.356C11.358 109.874 0.00300598 121.223 0.00300598 135.227C0.00300598 149.231 11.358 160.586 25.356 160.586H109.877V245.107C109.877 259.093 121.226 270.454 135.224 270.454C149.234 270.454 160.583 259.099 160.583 245.107V160.586H245.098C259.102 160.586 270.451 149.237 270.451 135.227C270.451 121.223 259.102 109.874 245.098 109.874H160.583V25.359C160.583 11.361 149.234 0 135.224 0Z" fill="white"/>
</svg>
