<svg width="38" height="47" viewBox="0 0 38 47" fill="none" xmlns="http://www.w3.org/2000/svg">
<path d="M19 0C12.3633 0 7 5.36328 7 12V17H3C1.30078 17 0 18.3008 0 20V44C0 45.6992 1.30078 47 3 47H35C36.6992 47 38 45.6992 38 44V20C38 18.3008 36.6992 17 35 17H31V12C31 5.36328 25.6367 0 19 0ZM19 2C24.5664 2 29 6.43359 29 12V17H9V12C9 6.43359 13.4336 2 19 2ZM19 27C20.6992 27 22 28.3008 22 30C22 30.8984 21.6016 31.6875 21 32.1875V35C21 36.1016 20.1016 37 19 37C17.8984 37 17 36.1016 17 35V32.1875C16.3984 31.6875 16 30.8984 16 30C16 28.3008 17.3008 27 19 27Z" fill="#3B82F6"/>
</svg>
